<mxfile host="app.diagrams.net" modified="2024-05-12T10:41:38.513Z" agent="Mozilla/5.0 (Macintosh; Intel Mac OS X 10_15_7) AppleWebKit/537.36 (KHTML, like Gecko) Chrome/124.0.0.0 Safari/537.36" etag="0FmHf0X3m3K0j-AXtsM2" version="24.2.7" type="github">
  <diagram name="第 1 页" id="UnVV1jVqtg5bVZ8VOgYM">
    <mxGraphModel dx="1166" dy="596" grid="1" gridSize="10" guides="1" tooltips="1" connect="1" arrows="1" fold="1" page="1" pageScale="1" pageWidth="827" pageHeight="1169" math="0" shadow="0">
      <root>
        <mxCell id="0" />
        <mxCell id="1" parent="0" />
        <mxCell id="3i7mrcEUjEWkVuN8lEiF-3" value="端到端自动驾驶" style="text;html=1;align=center;verticalAlign=middle;whiteSpace=wrap;rounded=0;" vertex="1" parent="1">
          <mxGeometry x="350" y="10" width="167" height="30" as="geometry" />
        </mxCell>
        <mxCell id="3i7mrcEUjEWkVuN8lEiF-6" value="模仿学习（IL）&lt;div&gt;行为克隆（BC）&lt;/div&gt;" style="whiteSpace=wrap;html=1;aspect=fixed;" vertex="1" parent="1">
          <mxGeometry x="30" y="80" width="110" height="110" as="geometry" />
        </mxCell>
      </root>
    </mxGraphModel>
  </diagram>
</mxfile>
